<?xml version="1.0" encoding="UTF-8"?>
<!DOCTYPE svg PUBLIC "-//W3C//DTD SVG 1.1//EN" "http://www.w3.org/Graphics/SVG/1.1/DTD/svg11.dtd">
<svg xmlns="http://www.w3.org/2000/svg" version="1.1" width="336px" height="540px" style="shape-rendering:geometricPrecision; text-rendering:geometricPrecision; image-rendering:optimizeQuality; fill-rule:evenodd; clip-rule:evenodd" xmlns:xlink="http://www.w3.org/1999/xlink">
<g><path style="opacity:1" fill="#05756b" d="M -0.5,-0.5 C 111.5,-0.5 223.5,-0.5 335.5,-0.5C 335.5,179.5 335.5,359.5 335.5,539.5C 223.5,539.5 111.5,539.5 -0.5,539.5C -0.5,359.5 -0.5,179.5 -0.5,-0.5 Z"/></g>
<g><path style="opacity:1" fill="#9fcabc" d="M 194.5,22.5 C 181.185,21.6673 167.851,21.3339 154.5,21.5C 167.894,18.7532 181.227,19.0865 194.5,22.5 Z"/></g>
<g><path style="opacity:1" fill="#dcecdc" d="M 154.5,21.5 C 167.851,21.3339 181.185,21.6673 194.5,22.5C 236.54,32.1838 265.207,57.1838 280.5,97.5C 280.259,99.8984 280.926,101.898 282.5,103.5C 293.969,155.324 278.969,197.657 237.5,230.5C 229.889,234.14 222.555,238.14 215.5,242.5C 213.421,242.971 211.421,243.637 209.5,244.5C 206.008,244.446 203.008,245.446 200.5,247.5C 174.9,252.968 149.9,251.134 125.5,242C 119.366,238.794 113.366,235.461 107.5,232C 90.9403,220.447 77.9403,205.614 68.5,187.5C 68.2451,185.033 67.2451,183.033 65.5,181.5C 61.953,173.858 59.6196,165.858 58.5,157.5C 57.186,143.163 57.186,128.829 58.5,114.5C 64.0433,83.9215 79.3766,59.4215 104.5,41C 109.167,38 113.833,35 118.5,32C 122.165,30.7222 125.832,29.5555 129.5,28.5C 132.018,27.7362 134.351,26.7362 136.5,25.5C 142.317,23.8823 148.317,22.5489 154.5,21.5 Z"/></g>
<g><path style="opacity:1" fill="#82baac" d="M 136.5,25.5 C 134.351,26.7362 132.018,27.7362 129.5,28.5C 131.09,26.179 133.423,25.179 136.5,25.5 Z"/></g>
<g><path style="opacity:1" fill="#76b4a7" d="M 179.5,28.5 C 176.167,28.5 172.833,28.5 169.5,28.5C 169.815,32.3714 169.482,36.0381 168.5,39.5C 168.5,35.5 168.5,31.5 168.5,27.5C 172.371,27.185 176.038,27.5184 179.5,28.5 Z"/></g>
<g><path style="opacity:1" fill="#348c81" d="M 179.5,28.5 C 177.052,29.4731 174.385,29.8064 171.5,29.5C 171.5,30.8333 171.5,32.1667 171.5,33.5C 173.527,33.3379 175.527,33.5045 177.5,34C 178.056,34.3826 178.389,34.8826 178.5,35.5C 176.167,35.5 173.833,35.5 171.5,35.5C 171.5,37.1667 171.5,38.8333 171.5,40.5C 174.167,40.5 176.833,40.5 179.5,40.5C 176.316,42.4136 172.649,43.0803 168.5,42.5C 168.5,41.5 168.5,40.5 168.5,39.5C 169.482,36.0381 169.815,32.3714 169.5,28.5C 172.833,28.5 176.167,28.5 179.5,28.5 Z"/></g>
<g><path style="opacity:1" fill="#47988c" d="M 144.5,30.5 C 145.496,30.4142 146.329,30.7476 147,31.5C 148.569,35.7028 149.402,40.0361 149.5,44.5C 148.5,44.5 147.5,44.5 146.5,44.5C 145.833,39.8333 145.167,35.1667 144.5,30.5 Z"/></g>
<g><path style="opacity:1" fill="#96c5b7" d="M 178.5,35.5 C 176.735,36.4614 174.735,36.7947 172.5,36.5C 172.5,37.5 172.5,38.5 172.5,39.5C 175.059,39.1984 177.393,39.5318 179.5,40.5C 176.833,40.5 174.167,40.5 171.5,40.5C 171.5,38.8333 171.5,37.1667 171.5,35.5C 173.833,35.5 176.167,35.5 178.5,35.5 Z"/></g>
<g><path style="opacity:1" fill="#328c80" d="M 161.5,27.5 C 162.376,27.3691 163.043,27.7025 163.5,28.5C 162.559,30.7721 161.226,32.7721 159.5,34.5C 161.316,36.8169 163.316,38.9835 165.5,41C 164.5,41.6667 163.5,41.6667 162.5,41C 158.063,35.8673 155.396,36.7007 154.5,43.5C 153.054,38.5081 152.72,33.5081 153.5,28.5C 154.5,30.5 155.5,32.5 156.5,34.5C 158.547,32.4504 160.214,30.117 161.5,27.5 Z"/></g>
<g><path style="opacity:1" fill="#4a998d" d="M 199.5,33.5 C 203.22,33.2961 206.553,34.2961 209.5,36.5C 208.667,36.8333 207.833,37.1667 207,37.5C 204.941,36.3818 202.774,35.7151 200.5,35.5C 200.5,36.8333 200.5,38.1667 200.5,39.5C 202.5,39.8333 204.5,40.1667 206.5,40.5C 206.5,41.5 206.5,42.5 206.5,43.5C 203.833,42.8333 201.167,42.1667 198.5,41.5C 198.238,42.9778 198.571,44.3112 199.5,45.5C 201.887,45.9121 203.887,46.9121 205.5,48.5C 205,48.8333 204.5,49.1667 204,49.5C 201.209,48.5938 198.376,47.9272 195.5,47.5C 195.338,45.4727 195.505,43.4727 196,41.5C 197.396,38.9361 198.563,36.2695 199.5,33.5 Z"/></g>
<g><path style="opacity:1" fill="#4a998d" d="M 185.5,29.5 C 188.545,29.5079 191.545,29.8413 194.5,30.5C 194.5,31.5 194.5,32.5 194.5,33.5C 191.792,32.5508 189.126,32.5508 186.5,33.5C 189.167,35.5 191.5,37.8333 193.5,40.5C 192.02,44.0502 189.353,45.2169 185.5,44C 184.5,43.5 183.5,43 182.5,42.5C 181.167,41.5 181.167,40.5 182.5,39.5C 184.93,41.571 187.597,41.9044 190.5,40.5C 188.462,38.7236 186.296,37.0569 184,35.5C 183.252,33.1599 183.752,31.1599 185.5,29.5 Z"/></g>
<g><path style="opacity:1" fill="#3d9286" d="M 134.5,33.5 C 138.619,33.1989 140.619,35.1989 140.5,39.5C 144.427,41.8964 144.427,44.3964 140.5,47C 138.412,48.0296 136.245,48.8629 134,49.5C 131.123,46.0596 129.289,42.0596 128.5,37.5C 128.833,36.8333 129.167,36.1667 129.5,35.5C 131.336,34.9724 133.003,34.3058 134.5,33.5 Z"/></g>
<g><path style="opacity:1" fill="#d0e6d6" d="M 135.5,41.5 C 137.167,41.5 138.833,41.5 140.5,41.5C 140.67,42.8221 140.337,43.9887 139.5,45C 137.564,45.813 135.564,46.313 133.5,46.5C 133.365,44.4458 134.032,42.7791 135.5,41.5 Z"/></g>
<g><path style="opacity:1" fill="#bfdccd" d="M 133.5,35.5 C 134.833,35.5 136.167,35.5 137.5,35.5C 137.825,38.5242 136.492,40.1909 133.5,40.5C 132,40.5472 131,39.8805 130.5,38.5C 131.34,37.265 132.34,36.265 133.5,35.5 Z"/></g>
<g><path style="opacity:1" fill="#419488" d="M 214.5,38.5 C 217.806,39.8202 220.806,41.6535 223.5,44C 220.82,44.3348 218.487,43.5014 216.5,41.5C 214.717,42.3482 214.217,43.6815 215,45.5C 221.014,49.6797 220.514,50.3464 213.5,47.5C 212.713,48.2421 212.047,49.0754 211.5,50C 219.606,56.0393 218.939,56.8726 209.5,52.5C 209.382,47.3619 211.049,42.6952 214.5,38.5 Z"/></g>
<g><path style="opacity:1" fill="#06756b" d="M 168.5,49.5 C 207.604,50.4354 235.437,68.4354 252,103.5C 253.662,110.481 255.162,117.481 256.5,124.5C 256.517,133.849 256.183,143.182 255.5,152.5C 254.541,157.307 253.208,161.974 251.5,166.5C 249.247,170.675 247.247,175.009 245.5,179.5C 220.201,215.304 186.201,227.804 143.5,217C 121.955,208.453 105.622,193.953 94.5,173.5C 93.9009,169.979 92.5675,166.979 90.5,164.5C 88.6925,158.269 87.3591,151.936 86.5,145.5C 86.4331,136.138 86.9331,126.804 88,117.5C 90.7853,111.78 92.6186,105.78 93.5,99.5C 105.092,75.375 123.759,59.7083 149.5,52.5C 154.011,52.3738 158.511,52.0405 163,51.5C 165.295,51.4535 167.129,50.7868 168.5,49.5 Z"/></g>
<g><path style="opacity:1" fill="#45968a" d="M 168.5,49.5 C 167.129,50.7868 165.295,51.4535 163,51.5C 158.511,52.0405 154.011,52.3738 149.5,52.5C 155.526,50.4505 161.859,49.4505 168.5,49.5 Z"/></g>
<g><path style="opacity:1" fill="#293538" d="M 192.5,97.5 C 193.496,97.4142 194.329,97.7476 195,98.5C 195.891,101.853 194.725,104.187 191.5,105.5C 189.556,104.811 187.556,104.311 185.5,104C 188.168,103.433 190.834,102.933 193.5,102.5C 193.5,101.5 193.5,100.5 193.5,99.5C 191.473,99.6621 189.473,99.4955 187.5,99C 189.382,98.8019 191.048,98.3019 192.5,97.5 Z"/></g>
<g><path style="opacity:1" fill="#8abfb1" d="M 280.5,97.5 C 282.074,99.1016 282.741,101.102 282.5,103.5C 280.926,101.898 280.259,99.8984 280.5,97.5 Z"/></g>
<g><path style="opacity:1" fill="#757572" d="M 145.5,103.5 C 147.435,104.15 149.435,104.483 151.5,104.5C 149.097,107.317 147.097,106.984 145.5,103.5 Z"/></g>
<g><path style="opacity:1" fill="#2a3e41" d="M 145.5,103.5 C 147.097,106.984 149.097,107.317 151.5,104.5C 154.5,104.5 157.5,104.5 160.5,104.5C 160.5,105.5 160.5,106.5 160.5,107.5C 155.624,106.404 153.957,108.071 155.5,112.5C 166.151,113.666 176.818,113.832 187.5,113C 188.967,111.902 189.801,110.402 190,108.5C 190.667,109.167 191.333,109.833 192,110.5C 192.945,114.494 193.778,118.494 194.5,122.5C 193.889,125.111 192.223,126.778 189.5,127.5C 189.75,126.078 190.583,125.078 192,124.5C 192.495,122.527 192.662,120.527 192.5,118.5C 191.5,118.5 190.5,118.5 189.5,118.5C 189.539,117.417 189.873,116.417 190.5,115.5C 179.52,114.501 168.52,114.168 157.5,114.5C 156.609,115.11 155.609,115.443 154.5,115.5C 154.355,112.526 153.022,110.359 150.5,109C 150.833,108.667 151.167,108.333 151.5,108C 148.876,108.65 146.209,108.483 143.5,107.5C 143.157,105.517 143.824,104.183 145.5,103.5 Z"/></g>
<g><path style="opacity:1" fill="#06736a" d="M 157.5,114.5 C 168.52,114.168 179.52,114.501 190.5,115.5C 189.873,116.417 189.539,117.417 189.5,118.5C 187.771,119.117 186.271,120.117 185,121.5C 181.246,127.258 176.746,132.425 171.5,137C 170.207,137.49 168.873,137.657 167.5,137.5C 167.5,136.5 167.5,135.5 167.5,134.5C 166.167,134.5 164.833,134.5 163.5,134.5C 160.374,128.235 158.374,121.568 157.5,114.5 Z"/></g>
<g><path style="opacity:1" fill="#2d5c5a" d="M 157.5,114.5 C 158.374,121.568 160.374,128.235 163.5,134.5C 162.167,134.5 161.5,135.167 161.5,136.5C 159.786,129.371 157.453,122.371 154.5,115.5C 155.609,115.443 156.609,115.11 157.5,114.5 Z"/></g>
<g><path style="opacity:1" fill="#569f93" d="M 93.5,99.5 C 92.6186,105.78 90.7853,111.78 88,117.5C 86.9331,126.804 86.4331,136.138 86.5,145.5C 83.9253,129.433 86.2587,114.1 93.5,99.5 Z"/></g>
<g><path style="opacity:1" fill="#8bbfb1" d="M 58.5,114.5 C 57.186,128.829 57.186,143.163 58.5,157.5C 57.7784,157.082 57.2784,156.416 57,155.5C 55.0828,142.829 55.0828,130.163 57,117.5C 57.2321,116.263 57.7321,115.263 58.5,114.5 Z"/></g>
<g><path style="opacity:1" fill="#141c21" d="M 189.5,127.5 C 192.223,126.778 193.889,125.111 194.5,122.5C 194.735,123.097 195.235,123.43 196,123.5C 199.626,121.576 203.459,121.076 207.5,122C 224.297,129.394 228.131,141.228 219,157.5C 207.626,168.011 196.293,168.011 185,157.5C 179.06,148.465 179.06,139.465 185,130.5C 186.129,128.859 187.629,127.859 189.5,127.5 Z"/></g>
<g><path style="opacity:1" fill="#2d5050" d="M 193.5,130.5 C 191.117,131.885 189.45,133.885 188.5,136.5C 187.25,136.577 186.417,137.244 186,138.5C 185.821,142.025 185.321,145.359 184.5,148.5C 182.108,139.933 184.775,133.266 192.5,128.5C 193.298,128.957 193.631,129.624 193.5,130.5 Z"/></g>
<g><path style="opacity:1" fill="#2d4f4e" d="M 220.5,141.5 C 219.833,140.833 219.167,140.167 218.5,139.5C 217.588,137.405 216.421,135.405 215,133.5C 213.736,131.393 211.903,130.393 209.5,130.5C 209.082,129.778 208.416,129.278 207.5,129C 204.518,128.502 201.518,128.335 198.5,128.5C 197.833,128.5 197.167,128.5 196.5,128.5C 196.414,127.504 196.748,126.671 197.5,126C 209.948,124.216 217.615,129.382 220.5,141.5 Z"/></g>
<g><path style="opacity:1" fill="#2d5b59" d="M 189.5,118.5 C 184.583,125.59 179.083,132.257 173,138.5C 173.135,140.425 173.302,142.425 173.5,144.5C 170.941,144.802 168.607,144.468 166.5,143.5C 168.048,143.179 168.715,142.179 168.5,140.5C 169.675,140.719 170.675,140.386 171.5,139.5C 171.167,139.167 170.833,138.833 170.5,138.5C 168.843,139.732 167.176,140.566 165.5,141C 164.191,139.249 164.525,137.749 166.5,136.5C 165.398,135.824 164.398,135.158 163.5,134.5C 164.833,134.5 166.167,134.5 167.5,134.5C 167.5,135.5 167.5,136.5 167.5,137.5C 168.873,137.657 170.207,137.49 171.5,137C 176.746,132.425 181.246,127.258 185,121.5C 186.271,120.117 187.771,119.117 189.5,118.5 Z"/></g>
<g><path style="opacity:1" fill="#191f24" d="M 158.5,136.5 C 158.5,139.5 158.5,142.5 158.5,145.5C 156.258,157.074 149.258,163.408 137.5,164.5C 129.088,163.915 122.921,159.915 119,152.5C 113.049,138.685 116.549,127.851 129.5,120C 141.289,116.875 150.622,120.375 157.5,130.5C 158.348,132.409 158.682,134.409 158.5,136.5 Z"/></g>
<g><path style="opacity:1" fill="#d4c9bb" d="M 149.5,130.5 C 151.694,132.9 153.361,135.566 154.5,138.5C 154.567,139.959 154.234,141.292 153.5,142.5C 149.4,142.763 145.4,142.43 141.5,141.5C 141.096,135.574 143.762,131.908 149.5,130.5 Z"/></g>
<g><path style="opacity:1" fill="#a29991" d="M 142.5,125.5 C 145.166,126.722 147.5,128.388 149.5,130.5C 143.762,131.908 141.096,135.574 141.5,141.5C 140.698,140.048 140.198,138.382 140,136.5C 138.644,137.38 137.144,137.714 135.5,137.5C 138.165,134.665 140.665,131.665 143,128.5C 143.47,127.423 143.303,126.423 142.5,125.5 Z"/></g>
<g><path style="opacity:1" fill="#575558" d="M 154.5,138.5 C 153.361,135.566 151.694,132.9 149.5,130.5C 147.5,128.388 145.166,126.722 142.5,125.5C 138.456,124.058 134.456,124.391 130.5,126.5C 130.5,125.5 130.5,124.5 130.5,123.5C 141.593,120.325 149.927,123.992 155.5,134.5C 156.631,136.074 156.798,137.741 156,139.5C 155.617,138.944 155.117,138.611 154.5,138.5 Z"/></g>
<g><path style="opacity:1" fill="#2b5654" d="M 130.5,123.5 C 130.5,124.5 130.5,125.5 130.5,126.5C 122.911,130.462 119.577,136.795 120.5,145.5C 117.784,135.587 121.118,128.254 130.5,123.5 Z"/></g>
<g><path style="opacity:1" fill="#66aa9d" d="M 256.5,124.5 C 257.166,128.319 257.499,132.319 257.5,136.5C 257.724,142.098 257.057,147.431 255.5,152.5C 256.183,143.182 256.517,133.849 256.5,124.5 Z"/></g>
<g><path style="opacity:1" fill="#575353" d="M 141.5,141.5 C 141.5,142.167 141.5,142.833 141.5,143.5C 135.143,145.81 133.143,143.81 135.5,137.5C 137.144,137.714 138.644,137.38 140,136.5C 140.198,138.382 140.698,140.048 141.5,141.5 Z"/></g>
<g><path style="opacity:1" fill="#8b827e" d="M 141.5,141.5 C 145.4,142.43 149.4,142.763 153.5,142.5C 153.5,143.167 153.5,143.833 153.5,144.5C 149.534,143.838 145.534,143.505 141.5,143.5C 141.5,142.833 141.5,142.167 141.5,141.5 Z"/></g>
<g><path style="opacity:1" fill="#2b3236" d="M 163.5,134.5 C 164.398,135.158 165.398,135.824 166.5,136.5C 164.525,137.749 164.191,139.249 165.5,141C 167.176,140.566 168.843,139.732 170.5,138.5C 170.833,138.833 171.167,139.167 171.5,139.5C 170.675,140.386 169.675,140.719 168.5,140.5C 168.715,142.179 168.048,143.179 166.5,143.5C 164.621,144.341 162.621,144.675 160.5,144.5C 159.833,144.833 159.167,145.167 158.5,145.5C 158.5,142.5 158.5,139.5 158.5,136.5C 159.464,144.277 160.464,144.277 161.5,136.5C 161.5,135.167 162.167,134.5 163.5,134.5 Z"/></g>
<g><path style="opacity:1" fill="#546865" d="M 166.5,143.5 C 168.607,144.468 170.941,144.802 173.5,144.5C 171.32,149.311 167.653,150.645 162.5,148.5C 161.295,147.423 160.628,146.09 160.5,144.5C 162.621,144.675 164.621,144.341 166.5,143.5 Z"/></g>
<g><path style="opacity:1" fill="#595456" d="M 196.5,128.5 C 197.167,128.5 197.833,128.5 198.5,128.5C 197.246,134.323 199.412,138.323 205,140.5C 206.512,145.656 204.846,147.323 200,145.5C 199.04,140.928 197.54,136.595 195.5,132.5C 196.434,131.432 196.768,130.099 196.5,128.5 Z"/></g>
<g><path style="opacity:1" fill="#acaea2" d="M 209.5,130.5 C 211.903,130.393 213.736,131.393 215,133.5C 216.421,135.405 217.588,137.405 218.5,139.5C 218.665,142.85 218.498,146.183 218,149.5C 217.764,151.119 216.931,152.119 215.5,152.5C 215.41,150.304 215.077,148.137 214.5,146C 217.23,143.663 216.897,141.663 213.5,140C 213.501,138.601 213.835,137.101 214.5,135.5C 213.286,133.931 211.619,133.098 209.5,133C 210.167,132.667 210.833,132.333 211.5,132C 210.584,131.722 209.918,131.222 209.5,130.5 Z"/></g>
<g><path style="opacity:1" fill="#cbbfb0" d="M 142.5,125.5 C 143.303,126.423 143.47,127.423 143,128.5C 140.665,131.665 138.165,134.665 135.5,137.5C 133.143,143.81 135.143,145.81 141.5,143.5C 145.534,143.505 149.534,143.838 153.5,144.5C 152.578,147.126 151.578,149.793 150.5,152.5C 150.863,153.183 151.196,153.85 151.5,154.5C 150.728,155.694 149.728,156.694 148.5,157.5C 146.549,157.227 145.049,157.893 144,159.5C 143.161,158.376 141.994,157.709 140.5,157.5C 137.174,156.953 133.84,156.453 130.5,156C 127.31,154.294 124.643,152.127 122.5,149.5C 120.896,148.713 120.229,147.38 120.5,145.5C 119.577,136.795 122.911,130.462 130.5,126.5C 134.456,124.391 138.456,124.058 142.5,125.5 Z"/></g>
<g><path style="opacity:1" fill="#113437" d="M 170.5,150.5 C 171.978,150.238 173.311,150.571 174.5,151.5C 173.68,153.111 172.346,153.778 170.5,153.5C 170.5,152.5 170.5,151.5 170.5,150.5 Z"/></g>
<g><path style="opacity:1" fill="#7d7c79" d="M 188.5,136.5 C 185.985,141.771 185.985,147.105 188.5,152.5C 187.363,151.211 186.03,150.211 184.5,149.5C 184.5,149.167 184.5,148.833 184.5,148.5C 185.321,145.359 185.821,142.025 186,138.5C 186.417,137.244 187.25,136.577 188.5,136.5 Z"/></g>
<g><path style="opacity:1" fill="#d1c6b6" d="M 198.5,128.5 C 201.518,128.335 204.518,128.502 207.5,129C 208.416,129.278 209.082,129.778 209.5,130.5C 209.918,131.222 210.584,131.722 211.5,132C 210.833,132.333 210.167,132.667 209.5,133C 211.619,133.098 213.286,133.931 214.5,135.5C 213.835,137.101 213.501,138.601 213.5,140C 216.897,141.663 217.23,143.663 214.5,146C 215.077,148.137 215.41,150.304 215.5,152.5C 214.05,154.923 212.05,156.923 209.5,158.5C 206.57,159.299 203.57,159.632 200.5,159.5C 195.515,158.847 191.515,156.514 188.5,152.5C 185.985,147.105 185.985,141.771 188.5,136.5C 189.45,133.885 191.117,131.885 193.5,130.5C 194.5,130.833 195.167,131.5 195.5,132.5C 197.54,136.595 199.04,140.928 200,145.5C 204.846,147.323 206.512,145.656 205,140.5C 199.412,138.323 197.246,134.323 198.5,128.5 Z"/></g>
<g><path style="opacity:1" fill="#6c6465" d="M 153.5,144.5 C 154.695,144.866 155.361,145.699 155.5,147C 154.999,150.048 153.666,152.548 151.5,154.5C 151.196,153.85 150.863,153.183 150.5,152.5C 151.578,149.793 152.578,147.126 153.5,144.5 Z"/></g>
<g><path style="opacity:1" fill="#575356" d="M 218.5,139.5 C 219.167,140.167 219.833,140.833 220.5,141.5C 221.455,150.735 217.788,157.068 209.5,160.5C 209.5,159.833 209.5,159.167 209.5,158.5C 212.05,156.923 214.05,154.923 215.5,152.5C 216.931,152.119 217.764,151.119 218,149.5C 218.498,146.183 218.665,142.85 218.5,139.5 Z"/></g>
<g><path style="opacity:1" fill="#5d585a" d="M 184.5,149.5 C 186.03,150.211 187.363,151.211 188.5,152.5C 191.515,156.514 195.515,158.847 200.5,159.5C 200.97,160.693 201.97,161.36 203.5,161.5C 205.512,161.16 207.512,160.827 209.5,160.5C 209.389,161.117 209.056,161.617 208.5,162C 200.69,163.975 194.024,162.142 188.5,156.5C 186.384,154.6 185.051,152.267 184.5,149.5 Z"/></g>
<g><path style="opacity:1" fill="#a0978c" d="M 122.5,149.5 C 124.643,152.127 127.31,154.294 130.5,156C 133.84,156.453 137.174,156.953 140.5,157.5C 141.994,157.709 143.161,158.376 144,159.5C 145.049,157.893 146.549,157.227 148.5,157.5C 140.424,164.439 132.59,164.106 125,156.5C 124.256,154.1 123.423,151.767 122.5,149.5 Z"/></g>
<g><path style="opacity:1" fill="#89817b" d="M 209.5,158.5 C 209.5,159.167 209.5,159.833 209.5,160.5C 207.512,160.827 205.512,161.16 203.5,161.5C 201.97,161.36 200.97,160.693 200.5,159.5C 203.57,159.632 206.57,159.299 209.5,158.5 Z"/></g>
<g><path style="opacity:1" fill="#83baac" d="M 90.5,164.5 C 92.5675,166.979 93.9009,169.979 94.5,173.5C 92.4163,170.947 91.083,167.947 90.5,164.5 Z"/></g>
<g><path style="opacity:1" fill="#a2cbbd" d="M 251.5,166.5 C 251.325,171.84 249.325,176.174 245.5,179.5C 247.247,175.009 249.247,170.675 251.5,166.5 Z"/></g>
<g><path style="opacity:1" fill="#6cada0" d="M 65.5,181.5 C 67.2451,183.033 68.2451,185.033 68.5,187.5C 66.7549,185.967 65.7549,183.967 65.5,181.5 Z"/></g>
<g><path style="opacity:1" fill="#45978b" d="M 139.5,224.5 C 143.08,223.923 146.08,224.923 148.5,227.5C 145.943,227.782 143.277,227.949 140.5,228C 138.012,230.627 137.845,233.46 140,236.5C 142.069,237.264 144.236,237.764 146.5,238C 141.771,240.679 138.271,239.513 136,234.5C 135.333,232.833 135.333,231.167 136,229.5C 137.387,227.953 138.553,226.287 139.5,224.5 Z"/></g>
<g><path style="opacity:1" fill="#48988c" d="M 194.5,226.5 C 195.5,226.5 196.5,226.5 197.5,226.5C 197.827,231.214 197.493,235.88 196.5,240.5C 195.749,239.624 195.249,238.624 195,237.5C 194.501,233.848 194.335,230.182 194.5,226.5 Z"/></g>
<g><path style="opacity:1" fill="#75b3a6" d="M 167.5,227.5 C 167.334,232.179 167.501,236.845 168,241.5C 168.278,240.584 168.778,239.918 169.5,239.5C 169.5,240.5 169.5,241.5 169.5,242.5C 168.5,242.5 167.5,242.5 166.5,242.5C 166.179,237.305 166.513,232.305 167.5,227.5 Z"/></g>
<g><path style="opacity:1" fill="#2c897e" d="M 167.5,227.5 C 169.423,231.029 170.089,235.029 169.5,239.5C 168.778,239.918 168.278,240.584 168,241.5C 167.501,236.845 167.334,232.179 167.5,227.5 Z"/></g>
<g><path style="opacity:1" fill="#419488" d="M 205.5,224.5 C 206.5,224.5 207.5,224.5 208.5,224.5C 208.764,228.393 209.431,232.226 210.5,236C 210.167,236.833 209.833,237.667 209.5,238.5C 207.107,234.154 205.774,229.487 205.5,224.5 Z"/></g>
<g><path style="opacity:1" fill="#429388" d="M 237.5,230.5 C 236.71,231.794 235.71,232.961 234.5,234C 230.93,235.285 227.764,237.119 225,239.5C 221.846,240.607 218.68,241.607 215.5,242.5C 222.555,238.14 229.889,234.14 237.5,230.5 Z"/></g>
<g><path style="opacity:1" fill="#43958a" d="M 150.5,226.5 C 157.458,225.14 162.124,227.64 164.5,234C 164.302,237.401 162.635,239.734 159.5,241C 156.518,241.498 153.518,241.665 150.5,241.5C 150.5,236.5 150.5,231.5 150.5,226.5 Z"/></g>
<g><path style="opacity:1" fill="#d3e7d7" d="M 153.5,228.5 C 159.377,228.206 161.877,230.872 161,236.5C 159.054,238.994 156.721,239.661 154,238.5C 153.502,235.183 153.335,231.85 153.5,228.5 Z"/></g>
<g><path style="opacity:1" fill="#48988d" d="M 199.5,225.5 C 201.124,225.36 202.29,226.027 203,227.5C 203.392,231.528 203.892,235.528 204.5,239.5C 202.876,239.64 201.71,238.973 201,237.5C 200.608,233.472 200.108,229.472 199.5,225.5 Z"/></g>
<g><path style="opacity:1" fill="#429589" d="M 177.5,227.5 C 184.142,227.64 186.976,230.973 186,237.5C 183.928,242.143 180.428,243.643 175.5,242C 172.682,238.662 171.849,234.829 173,230.5C 174.409,229.219 175.909,228.219 177.5,227.5 Z"/></g>
<g><path style="opacity:1" fill="#d3e7d8" d="M 176.5,230.5 C 183.997,229.804 185.997,232.637 182.5,239C 174.749,240.091 172.749,237.258 176.5,230.5 Z"/></g>
<g><path style="opacity:1" fill="#78b4a7" d="M 209.5,244.5 C 206.811,246.117 203.811,247.117 200.5,247.5C 203.008,245.446 206.008,244.446 209.5,244.5 Z"/></g>
<g><path style="opacity:1" fill="#76b4a7" d="M 120.5,267.5 C 119.861,273.809 120.194,277.142 121.5,277.5C 123.5,277.5 125.5,277.5 127.5,277.5C 126.081,278.451 124.415,278.784 122.5,278.5C 122.5,279.833 122.5,281.167 122.5,282.5C 121.5,282.5 120.5,282.5 119.5,282.5C 119.179,277.305 119.513,272.305 120.5,267.5 Z"/></g>
<g><path style="opacity:1" fill="#419488" d="M 144.5,267.5 C 146.423,271.029 147.089,275.029 146.5,279.5C 148.527,279.338 150.527,279.505 152.5,280C 153.774,280.977 153.774,281.811 152.5,282.5C 150.107,281.79 147.607,281.123 145,280.5C 144.501,276.179 144.334,271.846 144.5,267.5 Z"/></g>
<g><path style="opacity:1" fill="#d0e5d6" d="M 196.5,267.5 C 194.735,268.461 192.735,268.795 190.5,268.5C 190.5,271.833 190.5,275.167 190.5,278.5C 189.261,277.709 188.927,274.042 189.5,267.5C 191.833,267.5 194.167,267.5 196.5,267.5 Z"/></g>
<g><path style="opacity:1" fill="#99c7b9" d="M 120.5,267.5 C 123.518,267.335 126.518,267.502 129.5,268C 131.396,269.808 131.896,271.975 131,274.5C 130.578,276.426 129.411,277.426 127.5,277.5C 125.5,277.5 123.5,277.5 121.5,277.5C 120.194,277.142 119.861,273.809 120.5,267.5 Z"/></g>
<g><path style="opacity:1" fill="#c7e1d1" d="M 258.5,267.5 C 257.081,268.451 255.415,268.784 253.5,268.5C 253.5,273.167 253.5,277.833 253.5,282.5C 252.675,278.353 252.175,274.019 252,269.5C 250.601,268.773 249.101,268.273 247.5,268C 251.152,267.501 254.818,267.335 258.5,267.5 Z"/></g>
<g><path style="opacity:1" fill="#117a70" d="M 122.5,269.5 C 124.833,269.5 127.167,269.5 129.5,269.5C 130.265,274.906 127.931,276.906 122.5,275.5C 122.5,273.5 122.5,271.5 122.5,269.5 Z"/></g>
<g><path style="opacity:1" fill="#5fa79b" d="M 258.5,267.5 C 259.043,267.56 259.376,267.893 259.5,268.5C 257.955,269.452 256.288,269.785 254.5,269.5C 254.818,274.032 254.485,278.366 253.5,282.5C 253.5,277.833 253.5,273.167 253.5,268.5C 255.415,268.784 257.081,268.451 258.5,267.5 Z"/></g>
<g><path style="opacity:1" fill="#9cc9bb" d="M 215.5,267.5 C 216.822,267.33 217.989,267.663 219,268.5C 221.403,272.731 223.57,277.064 225.5,281.5C 225.167,281.833 224.833,282.167 224.5,282.5C 221.764,278.663 218.097,277.663 213.5,279.5C 211.442,283.436 210.608,283.103 211,278.5C 213.573,275.284 215.073,271.617 215.5,267.5 Z"/></g>
<g><path style="opacity:1" fill="#95c5b7" d="M 166.5,267.5 C 174.712,266.226 178.546,269.559 178,277.5C 172.54,284.108 167.206,284.108 162,277.5C 160.571,272.783 162.071,269.45 166.5,267.5 Z"/></g>
<g><path style="opacity:1" fill="#117a70" d="M 166.5,269.5 C 174.489,268.317 177.156,271.484 174.5,279C 164.837,281.834 162.17,278.668 166.5,269.5 Z"/></g>
<g><path style="opacity:1" fill="#71b1a4" d="M 86.5,267.5 C 87.0431,267.56 87.3764,267.893 87.5,268.5C 84.9135,269.48 82.2469,269.813 79.5,269.5C 79.5,270.833 79.5,272.167 79.5,273.5C 81.8333,273.5 84.1667,273.5 86.5,273.5C 86.5,274.5 86.5,275.5 86.5,276.5C 83.8333,276.5 81.1667,276.5 78.5,276.5C 78.5,273.833 78.5,271.167 78.5,268.5C 81.3854,268.806 84.0521,268.473 86.5,267.5 Z"/></g>
<g><path style="opacity:1" fill="#9cc9bb" d="M 97.5,268.5 C 97.8966,267.475 98.5632,267.308 99.5,268C 101.019,269.351 102.352,270.851 103.5,272.5C 104.5,271.167 105.5,269.833 106.5,268.5C 107.365,267.417 108.365,267.251 109.5,268C 107.954,270.257 106.288,272.424 104.5,274.5C 106.555,276.555 108.221,278.888 109.5,281.5C 109.167,281.833 108.833,282.167 108.5,282.5C 107.099,280.374 105.266,278.707 103,277.5C 101.12,278.902 99.453,280.569 98,282.5C 97.5,282.167 97,281.833 96.5,281.5C 98.3722,279.465 100.039,277.298 101.5,275C 100.715,272.406 99.3818,270.239 97.5,268.5 Z"/></g>
<g><path style="opacity:1" fill="#2c8a7f" d="M 217.5,270.5 C 221.925,274.558 221.259,276.558 215.5,276.5C 215.604,274.297 216.27,272.297 217.5,270.5 Z"/></g>
<g><path style="opacity:1" fill="#8cc0b2" d="M 196.5,267.5 C 200.254,268.828 201.421,271.494 200,275.5C 198.421,277.458 198.588,279.458 200.5,281.5C 200.167,281.833 199.833,282.167 199.5,282.5C 197.539,278.993 194.539,277.66 190.5,278.5C 190.5,275.167 190.5,271.833 190.5,268.5C 192.735,268.795 194.735,268.461 196.5,267.5 Z"/></g>
<g><path style="opacity:1" fill="#127b70" d="M 191.5,269.5 C 193.833,269.5 196.167,269.5 198.5,269.5C 199.265,274.906 196.931,276.906 191.5,275.5C 191.5,273.5 191.5,271.5 191.5,269.5 Z"/></g>
<g><path style="opacity:1" fill="#92c4b6" d="M 268.5,267.5 C 269.5,267.5 270.5,267.5 271.5,267.5C 271.334,271.514 271.501,275.514 272,279.5C 274.592,280.982 276.925,280.648 279,278.5C 279.175,274.789 279.675,271.122 280.5,267.5C 281.66,271.459 281.827,275.459 281,279.5C 278.441,282.349 275.274,283.183 271.5,282C 270.299,281.097 269.465,279.931 269,278.5C 268.501,274.848 268.335,271.182 268.5,267.5 Z"/></g>
<g><path style="opacity:1" fill="#95c5b7" d="M 63.5,275.5 C 64.8056,278.687 64.8056,282.02 63.5,285.5C 62.2495,282.126 62.2495,278.793 63.5,275.5 Z"/></g>
<g><path style="opacity:1" fill="#a5cebf" d="M 86.5,267.5 C 84.0521,268.473 81.3854,268.806 78.5,268.5C 78.5,271.167 78.5,273.833 78.5,276.5C 78.5,277.833 78.5,279.167 78.5,280.5C 81.7216,280.108 84.7216,280.608 87.5,282C 83.8484,282.499 80.1817,282.665 76.5,282.5C 76.5,277.5 76.5,272.5 76.5,267.5C 79.8333,267.5 83.1667,267.5 86.5,267.5 Z"/></g>
<g><path style="opacity:1" fill="#bddbcc" d="M 144.5,267.5 C 144.334,271.846 144.501,276.179 145,280.5C 147.607,281.123 150.107,281.79 152.5,282.5C 149.5,282.5 146.5,282.5 143.5,282.5C 143.179,277.305 143.513,272.305 144.5,267.5 Z"/></g>
<g><path style="opacity:1" fill="#d4e8d8" d="M 263.5,296.5 C 266.059,296.198 268.393,296.532 270.5,297.5C 268.5,297.5 266.5,297.5 264.5,297.5C 264.5,299.833 264.5,302.167 264.5,304.5C 264.5,305.167 264.5,305.833 264.5,306.5C 263,307.513 262.666,304.179 263.5,296.5 Z"/></g>
<g><path style="opacity:1" fill="#9ac8ba" d="M 127.5,295.5 C 134.927,293.629 139.593,296.296 141.5,303.5C 141.444,306.111 140.444,308.278 138.5,310C 134.637,311.354 130.637,311.854 126.5,311.5C 126.218,306.073 126.551,300.74 127.5,295.5 Z"/></g>
<g><path style="opacity:1" fill="#147b70" d="M 129.5,297.5 C 138.302,296.772 140.969,300.272 137.5,308C 134.986,309.252 132.32,309.752 129.5,309.5C 129.5,305.5 129.5,301.5 129.5,297.5 Z"/></g>
<g><path style="opacity:1" fill="#1a7d73" d="M 270.5,297.5 C 273.972,303.723 271.972,306.056 264.5,304.5C 264.5,302.167 264.5,299.833 264.5,297.5C 266.5,297.5 268.5,297.5 270.5,297.5 Z"/></g>
<g><path style="opacity:1" fill="#9bc9ba" d="M 48.5,296.5 C 51.8354,298.839 54.5021,301.839 56.5,305.5C 58.6672,303.17 60.3338,300.503 61.5,297.5C 62.325,296.614 63.325,296.281 64.5,296.5C 64.5,301.5 64.5,306.5 64.5,311.5C 63.5,311.5 62.5,311.5 61.5,311.5C 61.6646,308.482 61.498,305.482 61,302.5C 60.2178,305.076 58.7178,307.076 56.5,308.5C 54.5067,306.334 52.6733,304.001 51,301.5C 50.8236,304.882 50.3236,308.215 49.5,311.5C 48.5059,306.544 48.1725,301.544 48.5,296.5 Z"/></g>
<g><path style="opacity:1" fill="#9bc8ba" d="M 101.5,295.5 C 102.239,295.369 102.906,295.536 103.5,296C 106.008,299.338 108.675,302.505 111.5,305.5C 112.167,302.167 112.833,298.833 113.5,295.5C 114.833,300.5 114.833,305.5 113.5,310.5C 110.473,308.14 107.806,305.473 105.5,302.5C 104.516,305.428 104.183,308.428 104.5,311.5C 103.5,311.5 102.5,311.5 101.5,311.5C 101.5,306.167 101.5,300.833 101.5,295.5 Z"/></g>
<g><path style="opacity:1" fill="#9bc8ba" d="M 192.5,296.5 C 195.247,296.187 197.914,296.52 200.5,297.5C 198.657,297.755 196.657,297.922 194.5,298C 193.62,299.356 193.286,300.856 193.5,302.5C 197.448,302.347 200.114,304.013 201.5,307.5C 201.471,309.029 200.804,310.196 199.5,311C 196.014,312.043 193.014,311.376 190.5,309C 193.133,309.253 195.8,309.253 198.5,309C 199.833,307.667 199.833,306.333 198.5,305C 195.766,304.79 193.266,303.956 191,302.5C 190.257,300.126 190.757,298.126 192.5,296.5 Z"/></g>
<g><path style="opacity:1" fill="#96c6b8" d="M 263.5,296.5 C 273.092,294.261 276.092,297.761 272.5,307C 272.95,308.285 273.617,309.452 274.5,310.5C 274.167,310.833 273.833,311.167 273.5,311.5C 271.67,307.659 268.67,305.993 264.5,306.5C 264.5,305.833 264.5,305.167 264.5,304.5C 271.972,306.056 273.972,303.723 270.5,297.5C 268.393,296.532 266.059,296.198 263.5,296.5 Z"/></g>
<g><path style="opacity:1" fill="#9cc9bb" d="M 215.5,296.5 C 223.661,295.171 227.495,298.505 227,306.5C 222.985,312.216 218.319,312.883 213,308.5C 210.383,303.578 211.217,299.578 215.5,296.5 Z"/></g>
<g><path style="opacity:1" fill="#177c72" d="M 217.5,297.5 C 223.765,297.363 226.265,300.363 225,306.5C 217.28,311.77 213.613,309.77 214,300.5C 215.145,299.364 216.312,298.364 217.5,297.5 Z"/></g>
<g><path style="opacity:1" fill="#a1ccbd" d="M 238.5,295.5 C 241.85,295.335 245.183,295.502 248.5,296C 250.706,298.209 251.04,300.709 249.5,303.5C 252.1,306.041 252.1,308.541 249.5,311C 245.848,311.499 242.182,311.665 238.5,311.5C 238.5,306.167 238.5,300.833 238.5,295.5 Z"/></g>
<g><path style="opacity:1" fill="#238277" d="M 240.5,304.5 C 243.187,304.336 245.854,304.503 248.5,305C 249.833,306.333 249.833,307.667 248.5,309C 245.854,309.497 243.187,309.664 240.5,309.5C 240.5,307.833 240.5,306.167 240.5,304.5 Z"/></g>
<g><path style="opacity:1" fill="#2f897f" d="M 240.5,297.5 C 242.857,297.337 245.19,297.503 247.5,298C 248.38,299.356 248.714,300.856 248.5,302.5C 245.833,302.5 243.167,302.5 240.5,302.5C 240.5,300.833 240.5,299.167 240.5,297.5 Z"/></g>
<g><path style="opacity:1" fill="#97c6b8" d="M 154.5,296.5 C 159.447,295.628 163.613,296.961 167,300.5C 167.667,302.5 167.667,304.5 167,306.5C 161.667,313.167 156.333,313.167 151,306.5C 150.333,304.5 150.333,302.5 151,300.5C 152.376,299.295 153.542,297.962 154.5,296.5 Z"/></g>
<g><path style="opacity:1" fill="#147b70" d="M 156.5,297.5 C 164.263,297.228 166.596,300.728 163.5,308C 155.923,311.09 152.756,308.59 154,300.5C 154.698,299.309 155.531,298.309 156.5,297.5 Z"/></g>
<g><path style="opacity:1" fill="#99c8b9" d="M 76.5,296.5 C 78.2501,299.355 79.0835,302.689 79,306.5C 81.1775,310.065 83.8442,310.399 87,307.5C 88.3306,292.833 88.9973,292.833 89,307.5C 85.132,312.805 81.132,312.805 77,307.5C 76.5014,303.848 76.3347,300.182 76.5,296.5 Z"/></g>
<g><path style="opacity:1" fill="#8dc1b3" d="M 285.5,295.5 C 288.898,295.18 292.232,295.513 295.5,296.5C 293.257,297.474 290.924,297.808 288.5,297.5C 288.5,299.167 288.5,300.833 288.5,302.5C 297.833,303.167 297.833,303.833 288.5,304.5C 288.5,306.167 288.5,307.833 288.5,309.5C 291.247,309.187 293.914,309.52 296.5,310.5C 292.893,311.489 289.226,311.823 285.5,311.5C 285.5,306.167 285.5,300.833 285.5,295.5 Z"/></g>
<g><path style="opacity:1" fill="#84bcae" d="M 66.5,339.5 C 66.44,340.043 66.1067,340.376 65.5,340.5C 64.5052,335.208 64.1718,329.875 64.5,324.5C 74.486,322.801 77.8194,326.467 74.5,335.5C 77.1493,341.021 76.4827,341.521 72.5,337C 70.8659,336.506 69.1992,336.34 67.5,336.5C 67.7373,337.791 67.404,338.791 66.5,339.5 Z"/></g>
<g><path style="opacity:1" fill="#9dc9bb" d="M 114.5,331.5 C 114.198,334.059 114.532,336.393 115.5,338.5C 118.187,338.336 120.854,338.503 123.5,339C 119.848,339.499 116.182,339.665 112.5,339.5C 112.5,334.5 112.5,329.5 112.5,324.5C 116.226,324.177 119.893,324.511 123.5,325.5C 120.572,326.484 117.572,326.817 114.5,326.5C 114.5,328.167 114.5,329.833 114.5,331.5 Z"/></g>
<g><path style="opacity:1" fill="#96c5b7" d="M 220.5,324.5 C 222.857,324.337 225.19,324.503 227.5,325C 229.158,325.725 229.658,326.892 229,328.5C 220.358,325.141 217.525,327.974 220.5,337C 223.088,338.686 225.755,338.853 228.5,337.5C 229.696,337.846 229.696,338.346 228.5,339C 216.112,339.454 213.445,334.621 220.5,324.5 Z"/></g>
<g><path style="opacity:1" fill="#6eb0a3" d="M 268.5,325.5 C 267.514,329.97 267.181,334.637 267.5,339.5C 266.186,334.652 266.186,329.652 267.5,324.5C 268.107,324.624 268.44,324.957 268.5,325.5 Z"/></g>
<g><path style="opacity:1" fill="#d5e8d9" d="M 276.5,337.5 C 278.318,333.827 278.984,329.827 278.5,325.5C 279.789,329.435 279.789,334.101 278.5,339.5C 277.478,339.145 276.811,338.478 276.5,337.5 Z"/></g>
<g><path style="opacity:1" fill="#b7d8c9" d="M 66.5,339.5 C 65.5139,335.03 65.1805,330.363 65.5,325.5C 71.1667,325.664 71.5,325.997 66.5,326.5C 66.5,330.833 66.5,335.167 66.5,339.5 Z"/></g>
<g><path style="opacity:1" fill="#9cc9bb" d="M 135.5,324.5 C 140.63,323.713 144.963,325.046 148.5,328.5C 149.967,331.862 149.634,335.029 147.5,338C 143.637,339.354 139.637,339.854 135.5,339.5C 135.5,334.5 135.5,329.5 135.5,324.5 Z"/></g>
<g><path style="opacity:1" fill="#0f796f" d="M 67.5,327.5 C 69.8333,327.5 72.1667,327.5 74.5,327.5C 75.2647,332.906 72.9313,334.906 67.5,333.5C 67.5,331.5 67.5,329.5 67.5,327.5 Z"/></g>
<g><path style="opacity:1" fill="#117a70" d="M 137.5,327.5 C 147.457,326.265 149.79,329.765 144.5,338C 142.19,338.497 139.857,338.663 137.5,338.5C 137.5,334.833 137.5,331.167 137.5,327.5 Z"/></g>
<g><path style="opacity:1" fill="#c7e1d1" d="M 268.5,325.5 C 269.401,326.29 270.068,327.29 270.5,328.5C 270.19,329.738 269.69,329.738 269,328.5C 268.501,332.152 268.335,335.818 268.5,339.5C 268.167,339.5 267.833,339.5 267.5,339.5C 267.181,334.637 267.514,329.97 268.5,325.5 Z"/></g>
<g><path style="opacity:1" fill="#84bcae" d="M 114.5,331.5 C 116.924,331.192 119.257,331.526 121.5,332.5C 119.604,333.466 117.604,333.799 115.5,333.5C 115.5,335.167 115.5,336.833 115.5,338.5C 114.532,336.393 114.198,334.059 114.5,331.5 Z"/></g>
<g><path style="opacity:1" fill="#96c6b8" d="M 164.5,324.5 C 165.675,324.281 166.675,324.614 167.5,325.5C 169.243,329.984 171.243,334.317 173.5,338.5C 173.167,338.833 172.833,339.167 172.5,339.5C 170.851,337.563 168.685,336.563 166,336.5C 162.846,336.24 160.346,337.073 158.5,339C 160.73,334.267 162.73,329.434 164.5,324.5 Z"/></g>
<g><path style="opacity:1" fill="#28857b" d="M 164.5,328.5 C 167.292,329.392 168.625,331.392 168.5,334.5C 166.833,334.5 165.167,334.5 163.5,334.5C 163.833,332.5 164.167,330.5 164.5,328.5 Z"/></g>
<g><path style="opacity:1" fill="#9ecabc" d="M 184.5,324.5 C 187.807,324.063 190.807,324.73 193.5,326.5C 190.901,327.031 188.235,327.198 185.5,327C 184.167,328.333 184.167,329.667 185.5,331C 187.871,331.735 190.205,332.568 192.5,333.5C 194.18,338.076 192.514,340.076 187.5,339.5C 185.611,339.564 183.944,339.064 182.5,338C 185.098,338.422 187.764,338.422 190.5,338C 191.833,336.667 191.833,335.333 190.5,334C 183.484,333.544 181.484,330.378 184.5,324.5 Z"/></g>
<g><path style="opacity:1" fill="#85bcaf" d="M 278.5,325.5 C 278.984,329.827 278.318,333.827 276.5,337.5C 274.567,335.063 272.4,332.729 270,330.5C 269.819,333.695 269.319,336.695 268.5,339.5C 268.335,335.818 268.501,332.152 269,328.5C 269.69,329.738 270.19,329.738 270.5,328.5C 272.791,330.124 274.791,332.124 276.5,334.5C 277.167,331.358 277.834,328.358 278.5,325.5 Z"/></g>
<g><path style="opacity:1" fill="#a3cdbf" d="M 87.5,324.5 C 89.1999,328.445 90.3665,332.778 91,337.5C 93.5918,338.982 95.9251,338.648 98,336.5C 98.1747,332.789 98.6747,329.122 99.5,325.5C 100.997,330.191 100.664,334.691 98.5,339C 94.4087,340.227 90.9087,339.394 88,336.5C 87.5012,332.514 87.3345,328.514 87.5,324.5 Z"/></g>
<g><path style="opacity:1" fill="#9fcbbd" d="M 243.5,324.5 C 255.133,324.267 258.133,329.1 252.5,339C 243.889,341.371 239.722,338.204 240,329.5C 241.387,327.953 242.553,326.287 243.5,324.5 Z"/></g>
<g><path style="opacity:1" fill="#167b71" d="M 245.5,326.5 C 252.56,325.725 255.06,328.725 253,335.5C 249.619,339.485 246.286,339.485 243,335.5C 241.779,331.718 242.613,328.718 245.5,326.5 Z"/></g>
<g><path style="opacity:1" fill="#95c5b7" d="M 96.5,353.5 C 99.8499,353.335 103.183,353.502 106.5,354C 107,354.5 107.5,355 108,355.5C 108.407,358.682 108.907,361.849 109.5,365C 109.245,366.326 108.578,367.326 107.5,368C 103.848,368.499 100.182,368.665 96.5,368.5C 96.5,363.5 96.5,358.5 96.5,353.5 Z"/></g>
<g><path style="opacity:1" fill="#acd2c3" d="M 168.5,353.5 C 166.365,355.369 163.698,356.036 160.5,355.5C 160.5,359.5 160.5,363.5 160.5,367.5C 163.5,367.5 166.5,367.5 169.5,367.5C 166.038,368.482 162.371,368.815 158.5,368.5C 158.5,363.5 158.5,358.5 158.5,353.5C 161.833,353.5 165.167,353.5 168.5,353.5 Z"/></g>
<g><path style="opacity:1" fill="#a9d0c1" d="M 203.5,359.5 C 203.5,362.167 203.5,364.833 203.5,367.5C 206.5,367.5 209.5,367.5 212.5,367.5C 209.038,368.482 205.371,368.815 201.5,368.5C 201.5,363.5 201.5,358.5 201.5,353.5C 204.898,353.18 208.232,353.513 211.5,354.5C 208.914,355.48 206.247,355.813 203.5,355.5C 203.5,356.833 203.5,358.167 203.5,359.5 Z"/></g>
<g><path style="opacity:1" fill="#83bcae" d="M 120.5,353.5 C 121.5,353.5 122.5,353.5 123.5,353.5C 123.5,358.5 123.5,363.5 123.5,368.5C 122.5,368.5 121.5,368.5 120.5,368.5C 120.5,363.5 120.5,358.5 120.5,353.5 Z"/></g>
<g><path style="opacity:1" fill="#a1ccbd" d="M 135.5,353.5 C 137.062,355.372 138.062,357.705 138.5,360.5C 140.984,358.517 143.317,356.35 145.5,354C 146.332,353.312 146.998,353.479 147.5,354.5C 145.492,356.306 143.825,358.306 142.5,360.5C 143.935,363.112 145.602,365.612 147.5,368C 146.833,368.667 146.167,368.667 145.5,368C 144.174,365.842 142.507,364.008 140.5,362.5C 138.343,363.848 137.01,365.848 136.5,368.5C 135.506,363.544 135.173,358.544 135.5,353.5 Z"/></g>
<g><path style="opacity:1" fill="#bfdccd" d="M 226.5,355.5 C 225.167,359.5 225.167,363.5 226.5,367.5C 229.187,367.336 231.854,367.503 234.5,368C 231.183,368.498 227.85,368.665 224.5,368.5C 224.5,363.5 224.5,358.5 224.5,353.5C 227.898,353.18 231.232,353.513 234.5,354.5C 231.914,355.48 229.247,355.813 226.5,355.5 Z"/></g>
<g><path style="opacity:1" fill="#06766c" d="M 99.5,356.5 C 101.833,356.5 104.167,356.5 106.5,356.5C 106.5,357.5 106.5,358.5 106.5,359.5C 104.167,359.5 101.833,359.5 99.5,359.5C 99.5,358.5 99.5,357.5 99.5,356.5 Z"/></g>
<g><path style="opacity:1" fill="#9bc9bb" d="M 181.5,353.5 C 184.397,353.125 187.063,353.625 189.5,355C 187.19,355.497 184.857,355.663 182.5,355.5C 182.286,357.144 182.62,358.644 183.5,360C 185.762,360.642 187.929,361.475 190,362.5C 191.604,367.23 189.937,369.23 185,368.5C 182.949,368.577 181.116,368.077 179.5,367C 182.133,367.253 184.8,367.253 187.5,367C 188.833,365.667 188.833,364.333 187.5,363C 180.465,362.529 178.465,359.363 181.5,353.5 Z"/></g>
<g><path style="opacity:1" fill="#529f93" d="M 168.5,353.5 C 169.267,354.172 169.934,355.005 170.5,356C 167.518,356.498 164.518,356.665 161.5,356.5C 161.5,357.5 161.5,358.5 161.5,359.5C 163.833,359.5 166.167,359.5 168.5,359.5C 168.5,360.5 168.5,361.5 168.5,362.5C 166.167,362.5 163.833,362.5 161.5,362.5C 161.5,363.833 161.5,365.167 161.5,366.5C 164.385,366.194 167.052,366.527 169.5,367.5C 166.5,367.5 163.5,367.5 160.5,367.5C 160.5,363.5 160.5,359.5 160.5,355.5C 163.698,356.036 166.365,355.369 168.5,353.5 Z"/></g>
<g><path style="opacity:1" fill="#77b5a7" d="M 226.5,355.5 C 226.5,356.833 226.5,358.167 226.5,359.5C 228.833,359.5 231.167,359.5 233.5,359.5C 233.5,360.5 233.5,361.5 233.5,362.5C 231.167,362.5 228.833,362.5 226.5,362.5C 226.5,364.167 226.5,365.833 226.5,367.5C 225.167,363.5 225.167,359.5 226.5,355.5 Z"/></g>
<g><path style="opacity:1" fill="#93c4b6" d="M 245.5,353.5 C 246.787,354.871 247.453,356.705 247.5,359C 247.167,360.833 246.833,362.667 246.5,364.5C 245.511,360.893 245.177,357.226 245.5,353.5 Z"/></g>
<g><path style="opacity:1" fill="#248277" d="M 98.5,362.5 C 101.5,362.5 104.5,362.5 107.5,362.5C 107.714,364.144 107.38,365.644 106.5,367C 103.854,367.497 101.187,367.664 98.5,367.5C 98.5,365.833 98.5,364.167 98.5,362.5 Z"/></g>
<g><path style="opacity:1" fill="#5da599" d="M 203.5,359.5 C 205.823,360.058 208.157,360.725 210.5,361.5C 208.604,362.466 206.604,362.799 204.5,362.5C 204.5,363.833 204.5,365.167 204.5,366.5C 207.385,366.194 210.052,366.527 212.5,367.5C 209.5,367.5 206.5,367.5 203.5,367.5C 203.5,364.833 203.5,362.167 203.5,359.5 Z"/></g>
<g><path style="opacity:1" fill="#edf5f1" d="M 93.5,472.5 C 97.5577,471.692 100.224,473.192 101.5,477C 99.3182,481.768 96.1516,482.601 92,479.5C 91.1668,476.829 91.6668,474.496 93.5,472.5 Z"/></g>
<g><path style="opacity:1" fill="#faf9f5" d="M 112.5,473.5 C 114.833,473.5 117.167,473.5 119.5,473.5C 119.333,484.172 119.5,494.839 120,505.5C 126.167,500 132.333,494.5 138.5,489C 141.5,488.333 144.5,488.333 147.5,489C 142.018,493.315 137.018,498.149 132.5,503.5C 137.833,510.5 143.167,517.5 148.5,524.5C 145.894,525.652 143.227,525.818 140.5,525C 135.88,519.592 131.38,514.092 127,508.5C 120.025,512.058 117.525,517.724 119.5,525.5C 117.167,525.5 114.833,525.5 112.5,525.5C 112.5,508.167 112.5,490.833 112.5,473.5 Z"/></g>
<g><path style="opacity:1" fill="#f5f8f5" d="M 82.5,508.5 C 82.1667,511.833 81.8333,515.167 81.5,518.5C 79.053,521.899 75.7197,524.065 71.5,525C 61.172,525.5 50.8387,525.666 40.5,525.5C 40.5,509.167 40.5,492.833 40.5,476.5C 50.1724,476.334 59.8391,476.5 69.5,477C 80.692,480.287 83.5254,487.12 78,497.5C 76.7453,498.211 75.5786,499.044 74.5,500C 78.7482,501.413 81.4148,504.246 82.5,508.5 Z"/></g>
<g><path style="opacity:1" fill="#05766d" d="M 71.5,485.5 C 72.2186,487.764 72.552,490.097 72.5,492.5C 71.7813,494.888 70.1146,496.388 67.5,497C 61.1754,497.5 54.8421,497.666 48.5,497.5C 48.5,492.5 48.5,487.5 48.5,482.5C 55.175,482.334 61.8417,482.5 68.5,483C 69.5707,483.852 70.5707,484.685 71.5,485.5 Z"/></g>
<g><path style="opacity:1" fill="#40c2e2" d="M 71.5,485.5 C 72.9931,486.312 73.6598,487.645 73.5,489.5C 73.4805,490.726 73.1471,491.726 72.5,492.5C 72.552,490.097 72.2186,487.764 71.5,485.5 Z"/></g>
<g><path style="opacity:1" fill="#f5fcfb" d="M 92.5,488.5 C 94.8333,488.5 97.1667,488.5 99.5,488.5C 99.5,500.833 99.5,513.167 99.5,525.5C 97.1667,525.5 94.8333,525.5 92.5,525.5C 92.5,513.167 92.5,500.833 92.5,488.5 Z"/></g>
<g><path style="opacity:1" fill="#f5f9f7" d="M 185.5,498.5 C 186.114,502.135 186.448,505.802 186.5,509.5C 176.81,509.168 167.144,509.502 157.5,510.5C 160.974,518.402 166.974,521.235 175.5,519C 177.587,518.208 179.421,517.041 181,515.5C 182.5,517 184,518.5 185.5,520C 183.17,522.167 180.503,523.834 177.5,525C 159.458,528.114 150.458,520.614 150.5,502.5C 151.537,501.07 152.204,499.403 152.5,497.5C 155.866,491.159 161.199,488.159 168.5,488.5C 176.718,487.755 182.385,491.088 185.5,498.5 Z"/></g>
<g><path style="opacity:1" fill="#f5f8f5" d="M 192.5,519.5 C 193.906,519.027 194.573,518.027 194.5,516.5C 200.509,519.337 206.843,520.171 213.5,519C 217.595,515.995 217.261,513.329 212.5,511C 205.92,510.749 199.92,508.915 194.5,505.5C 193.167,501.5 193.167,497.5 194.5,493.5C 195.894,491.292 197.894,489.792 200.5,489C 207.715,487.887 214.715,488.554 221.5,491C 221.833,491.333 222.167,491.667 222.5,492C 220.981,493.351 219.648,494.851 218.5,496.5C 213.323,494.568 207.989,494.068 202.5,495C 199.601,498.156 199.935,500.822 203.5,503C 209.396,503.926 215.062,505.592 220.5,508C 225.847,516.194 223.847,521.861 214.5,525C 207.285,526.113 200.285,525.446 193.5,523C 192.663,521.989 192.33,520.822 192.5,519.5 Z"/></g>
<g><path style="opacity:1" fill="#f5f9f7" d="M 263.5,498.5 C 264.114,502.135 264.448,505.802 264.5,509.5C 254.81,509.168 245.144,509.502 235.5,510.5C 238.974,518.402 244.974,521.235 253.5,519C 255.587,518.208 257.421,517.041 259,515.5C 260.5,517 262,518.5 263.5,520C 261.17,522.167 258.503,523.834 255.5,525C 237.458,528.114 228.458,520.614 228.5,502.5C 229.537,501.07 230.204,499.403 230.5,497.5C 233.866,491.159 239.199,488.159 246.5,488.5C 254.718,487.755 260.385,491.088 263.5,498.5 Z"/></g>
<g><path style="opacity:1" fill="#f5f9f7" d="M 306.5,498.5 C 307.114,502.135 307.448,505.802 307.5,509.5C 297.833,509.5 288.167,509.5 278.5,509.5C 281.095,518.636 287.095,521.802 296.5,519C 298.587,518.208 300.421,517.041 302,515.5C 304.705,516.953 305.539,518.953 304.5,521.5C 302.664,522.919 300.664,524.086 298.5,525C 286.773,528.322 277.939,524.822 272,514.5C 271.183,508.984 271.349,503.65 272.5,498.5C 273.906,498.027 274.573,497.027 274.5,495.5C 276.397,492.441 279.064,490.274 282.5,489C 293.217,485.873 301.217,489.04 306.5,498.5 Z"/></g>
<g><path style="opacity:1" fill="#1f7e75" d="M 165.5,493.5 C 174.07,492.595 179.07,496.261 180.5,504.5C 172.804,504.831 165.138,504.497 157.5,503.5C 158.388,498.624 161.055,495.291 165.5,493.5 Z"/></g>
<g><path style="opacity:1" fill="#1f7e75" d="M 243.5,493.5 C 252.07,492.595 257.07,496.261 258.5,504.5C 250.804,504.831 243.138,504.497 235.5,503.5C 236.388,498.624 239.055,495.291 243.5,493.5 Z"/></g>
<g><path style="opacity:1" fill="#11786f" d="M 300.5,500.5 C 300.5,501.5 300.5,502.5 300.5,503.5C 293.167,503.5 285.833,503.5 278.5,503.5C 282.281,493.128 288.948,490.962 298.5,497C 299.305,498.113 299.972,499.279 300.5,500.5 Z"/></g>
<g><path style="opacity:1" fill="#7ed2ec" d="M 274.5,495.5 C 274.573,497.027 273.906,498.027 272.5,498.5C 272.427,496.973 273.094,495.973 274.5,495.5 Z"/></g>
<g><path style="opacity:1" fill="#4cb3d3" d="M 152.5,497.5 C 152.204,499.403 151.537,501.07 150.5,502.5C 150.12,500.302 150.787,498.635 152.5,497.5 Z"/></g>
<g><path style="opacity:1" fill="#53bcdb" d="M 194.5,493.5 C 193.167,497.5 193.167,501.5 194.5,505.5C 193.883,505.389 193.383,505.056 193,504.5C 192.333,501.167 192.333,497.833 193,494.5C 193.383,493.944 193.883,493.611 194.5,493.5 Z"/></g>
<g><path style="opacity:1" fill="#4cb3d3" d="M 230.5,497.5 C 230.204,499.403 229.537,501.07 228.5,502.5C 228.12,500.302 228.787,498.635 230.5,497.5 Z"/></g>
<g><path style="opacity:1" fill="#05766d" d="M 48.5,503.5 C 55.175,503.334 61.8417,503.5 68.5,504C 75.5303,505.743 77.3636,509.91 74,516.5C 72.8289,517.893 71.3289,518.727 69.5,519C 62.5079,519.5 55.5079,519.666 48.5,519.5C 48.5,514.167 48.5,508.833 48.5,503.5 Z"/></g>
<g><path style="opacity:1" fill="#4ea19f" d="M 300.5,500.5 C 301.434,501.568 301.768,502.901 301.5,504.5C 293.648,504.825 285.982,504.492 278.5,503.5C 285.833,503.5 293.167,503.5 300.5,503.5C 300.5,502.5 300.5,501.5 300.5,500.5 Z"/></g>
<g><path style="opacity:1" fill="#eeddb4" d="M 185.5,498.5 C 187.569,502.044 187.902,505.71 186.5,509.5C 186.448,505.802 186.114,502.135 185.5,498.5 Z"/></g>
<g><path style="opacity:1" fill="#eeddb4" d="M 263.5,498.5 C 265.569,502.044 265.902,505.71 264.5,509.5C 264.448,505.802 264.114,502.135 263.5,498.5 Z"/></g>
<g><path style="opacity:1" fill="#c5bc7b" d="M 306.5,498.5 C 308.569,502.044 308.902,505.71 307.5,509.5C 307.448,505.802 307.114,502.135 306.5,498.5 Z"/></g>
<g><path style="opacity:1" fill="#dbd2a4" d="M 82.5,508.5 C 83.7097,511.93 83.3764,515.263 81.5,518.5C 81.8333,515.167 82.1667,511.833 82.5,508.5 Z"/></g>
<g><path style="opacity:1" fill="#64c4e2" d="M 194.5,516.5 C 194.573,518.027 193.906,519.027 192.5,519.5C 192.427,517.973 193.094,516.973 194.5,516.5 Z"/></g>
</svg>
